<svg version="1.0" xmlns="http://www.w3.org/2000/svg" width="716.000000pt" height="744.000000pt" viewBox="0 0 716.000000 744.000000" preserveAspectRatio="xMidYMid meet">

<g transform="translate(0.000000,744.000000) scale(0.100000,-0.100000)" fill="#f0e5dd" stroke="none">
<path d="M3340 6524 c-485 -60 -843 -207 -1195 -491 -471 -380 -786 -917 -890 -1518 -52 -300 -47 -686 11 -978 43 -215 137 -480 242 -679 51 -98 59 -108 84 -108 15 0 28 3 28 7 0 3 -38 83 -85 177 -132 265 -215 546 -246 823 -20 188 -14 182 118 -127 67 -157 142 -337 166 -400 25 -63 79 -189 120 -280 40 -91 76 -173 80 -182 5 -14 18 -18 58 -18 60 0 61 -6 -16 115 -117 185 -216 420 -268 635 -52 212 -62 308 -62 565 0 241 3 271 47 495 57 294 223 649 427 910 598 769 1603 1013 2456 596 431 -211 764 -557 990 -1029 99 -207 154 -384 190 -612 22 -140 31 -454 16 -596 -36 -347 -149 -681 -324 -960 -37 -59 -67 -109 -67 -113 0 -3 23 -6 51 -6 l50 0 21 48 c11 26 53 121 93 212 40 91 102 239 138 330 35 91 104 259 153 375 l89 209 3 -59 c6 -117 -47 -394 -114 -600 -47 -140 -90 -240 -169 -392 l-64 -123 32 0 c31 0 35 5 89 108 379 724 391 1608 33 2337 -313 636 -871 1103 -1515 1267 -197 49 -280 60 -515 63 -121 2 -236 1 -255 -1z m65 -63 c-17 -15 -404 -197 -573 -270 -89 -38 -224 -103 -300 -143 -167 -90 -327 -157 -495 -208 -40 -13 -32 -1 53 76 326 293 715 475 1150 539 103 15 178 18 165 6z m338 -81 c98 -46 176 -84 174 -86 -2 -2 -28 1 -58 6 -97 18 -434 22 -556 8 -62 -8 -109 -10 -105 -6 15 15 347 168 357 164 6 -2 90 -41 188 -86z m182 65 c326 -56 658 -197 910 -385 85 -64 267 -221 262 -226 -4 -4 -150 46 -291 100 -38 14 -146 66 -240 115 -94 49 -245 121 -336 159 -91 39 -253 114 -360 167 l-195 96 80 -5 c44 -3 121 -12 170 -21z m1182 -676 c47 -19 53 -25 67 -67 15 -47 76 -262 76 -269 0 -2 -34 38 -76 89 -42 51 -135 150 -206 220 l-129 126 108 -39 c59 -22 131 -49 160 -60z m-2974 -26 c-66 -65 -155 -161 -198 -213 -43 -52 -81 -99 -85 -104 -9 -10 75 293 88 313 7 12 278 118 306 120 5 1 -45 -52 -111 -116z m3216 -198 c158 -210 270 -430 360 -705 58 -177 116 -494 109 -595 -3 -44 -7 -37 -100 182 -53 126 -126 303 -162 394 -35 92 -92 227 -126 300 -35 74 -78 177 -97 229 -38 104 -93 294 -93 319 0 19 9 8 109 -124z m-3524 -7 c-52 -176 -88 -274 -163 -433 -35 -77 -87 -198 -113 -270 -27 -71 -97 -244 -156 -383 -118 -276 -126 -283 -104 -93 46 383 185 771 386 1076 78 119 173 240 182 232 2 -3 -12 -61 -32 -129z m3926 -1315 c32 -78 59 -151 59 -162 0 -11 -36 -104 -81 -208 -64 -149 -79 -179 -75 -143 30 274 30 401 0 695 l-5 50 21 -45 c12 -25 48 -109 81 -187z m-4311 106 c-15 -131 -15 -435 -1 -558 7 -52 10 -95 8 -97 -5 -6 -148 340 -154 371 -3 22 14 75 67 200 39 94 74 176 77 183 13 30 14 -2 3 -99z" fill="#f0e5dd"/>
<path d="M3297 6034 c-118 -18 -222 -48 -330 -95 -352 -152 -638 -486 -802 -934 -15 -39 -39 -69 -119 -145 -56 -52 -138 -131 -184 -175 l-83 -80 -19 -130 c-11 -71 -34 -215 -51 -320 -45 -271 -42 -296 51 -500 41 -88 110 -232 155 -320 l81 -159 74 -33 c41 -18 167 -70 280 -117 113 -46 258 -107 323 -135 65 -28 126 -51 135 -51 29 0 167 89 254 165 48 41 90 75 93 75 9 0 -5 -66 -41 -193 -19 -65 -34 -123 -34 -128 0 -5 9 -9 20 -9 15 0 24 16 45 83 37 116 65 241 65 288 0 38 -8 49 -122 172 -68 73 -155 168 -195 213 l-71 80 225 113 c124 61 226 111 227 109 1 -2 15 -34 31 -72 36 -86 122 -182 194 -216 54 -25 59 -34 36 -64 -8 -11 -15 -30 -15 -43 0 -19 -10 -28 -47 -44 -27 -11 -63 -32 -81 -45 -41 -32 -90 -116 -98 -171 -5 -36 -10 -42 -33 -45 -41 -5 -39 -39 4 -77 l36 -31 270 0 c286 0 314 4 339 49 20 38 13 59 -22 63 -33 4 -33 4 12 16 94 25 122 57 68 76 -23 8 -32 6 -51 -12 -13 -12 -32 -22 -43 -21 -17 0 -17 1 4 11 31 15 28 29 -5 22 -24 -5 -31 0 -48 31 -27 51 -109 122 -156 136 -33 10 -39 16 -39 39 0 15 -9 35 -20 45 -17 15 -20 31 -20 102 0 64 -3 83 -14 83 -17 0 -26 -22 -26 -61 0 -36 -5 -36 -61 0 -72 45 -146 148 -163 226 -6 27 -3 33 25 49 33 20 33 19 59 -26 14 -23 131 -78 167 -78 66 0 82 67 33 140 -47 71 -43 81 63 144 l92 56 35 -43 c49 -60 92 -99 184 -164 311 -224 436 -332 489 -424 64 -109 104 -280 114 -493 l6 -128 -24 7 c-158 48 -358 139 -493 224 -102 63 -116 69 -116 49 0 -23 14 -34 103 -93 192 -125 528 -254 754 -290 60 -9 140 16 180 57 56 58 66 98 58 222 l-7 108 46 43 c38 35 46 48 46 78 0 20 -4 47 -9 61 -8 18 -6 28 5 37 48 40 57 119 19 175 -45 66 -33 97 61 158 51 33 69 66 68 122 -1 46 -22 83 -145 249 -28 39 -65 99 -83 135 -30 64 -31 67 -28 190 5 169 4 274 -1 545 -6 328 -30 410 -155 546 -74 80 -241 218 -303 249 -36 19 -39 19 -39 3 0 -26 5 -30 110 -110 52 -40 110 -86 129 -101 l34 -29 -53 -89 c-159 -266 -435 -522 -785 -729 -83 -49 -230 -125 -241 -125 -11 0 52 78 261 327 11 13 45 40 75 61 52 36 91 89 209 281 7 11 13 10 38 -3 148 -76 323 38 323 211 0 83 -52 172 -121 208 -22 12 -27 23 -32 69 -16 162 -163 271 -311 233 -53 -13 -54 -13 -91 14 -51 38 -99 53 -147 45 -125 -20 -209 -133 -194 -260 6 -54 39 -117 84 -159 l29 -28 -78 -137 c-44 -75 -79 -140 -79 -144 0 -4 36 -26 80 -47 82 -41 157 -89 178 -114 18 -22 -93 -162 -324 -408 -110 -118 -218 -233 -239 -257 -48 -54 -65 -63 -226 -118 -71 -24 -168 -60 -215 -78 -47 -19 -84 -32 -82 -28 57 122 158 285 191 306 18 12 51 15 162 13 127 -2 144 0 180 20 48 26 137 99 134 110 -3 13 -107 32 -177 32 -65 1 -115 -18 -204 -77 -21 -14 -41 -23 -43 -20 -8 8 81 122 118 154 55 47 87 54 209 52 109 -3 115 -2 167 27 59 33 139 100 130 109 -10 11 -111 26 -171 26 -59 0 -107 -19 -207 -82 l-35 -22 30 41 c319 444 336 475 342 618 2 55 0 110 -5 122 -8 21 -11 19 -56 -36 -87 -108 -100 -141 -108 -268 -7 -121 -18 -149 -88 -237 -36 -45 -38 -40 -12 29 32 86 35 126 12 215 -12 45 -28 96 -35 113 l-14 32 -37 -80 c-49 -104 -55 -172 -26 -278 36 -133 27 -166 -75 -275 -65 -68 -71 -63 -28 21 27 52 24 139 -10 230 -15 43 -33 76 -38 75 -6 -2 -26 -40 -44 -83 -38 -91 -43 -157 -20 -267 21 -101 14 -123 -91 -275 -35 -50 -93 -143 -128 -204 l-65 -113 0 145 c0 162 -3 154 85 250 33 36 56 72 64 100 8 31 11 136 9 354 -3 278 -5 310 -19 313 -14 3 -17 -10 -20 -82 -3 -66 -9 -91 -25 -112 -30 -41 -45 -42 -33 -2 16 56 10 95 -26 188 -29 73 -35 103 -35 163 0 46 -5 80 -13 92 -26 34 -37 8 -37 -84 0 -79 -4 -96 -36 -171 -33 -76 -36 -90 -31 -153 l4 -69 -26 26 c-22 23 -26 36 -31 113 -4 69 -8 88 -20 88 -13 0 -15 -43 -18 -315 -2 -213 1 -328 8 -354 7 -21 33 -62 59 -90 97 -105 91 -86 91 -292 l0 -184 -32 -20 -33 -20 -6 98 c-12 193 -48 254 -321 549 -84 90 -154 170 -156 177 -2 8 60 53 147 107 135 84 151 97 151 122 l0 27 -82 -52 c-149 -94 -213 -128 -216 -118 -6 18 134 292 199 390 78 117 265 308 369 377 134 90 265 146 440 188 81 20 367 30 470 17 60 -7 81 -7 103 5 16 8 27 17 24 20 -3 2 -50 11 -104 19 -122 17 -310 16 -426 -2z m731 -124 c39 -24 40 -39 7 -70 -14 -13 -25 -29 -25 -36 0 -27 23 -25 53 4 75 71 162 90 242 53 110 -51 154 -176 105 -302 -10 -29 -17 -56 -14 -61 12 -19 33 -5 53 37 12 25 25 45 30 45 4 0 20 -9 35 -21 69 -54 89 -173 42 -253 -49 -83 -168 -111 -244 -58 -16 12 -34 22 -40 22 -5 0 -33 -36 -62 -80 l-53 -81 -71 69 c-85 82 -110 100 -205 147 -42 21 -71 42 -68 48 3 7 26 48 51 92 l46 80 -27 20 c-73 54 -103 106 -103 179 0 56 14 93 48 130 54 57 140 73 200 36z m-383 -437 c-7 -60 -44 -152 -70 -173 -13 -11 -15 -6 -15 36 1 27 7 66 14 87 16 43 57 107 69 107 5 0 5 -26 2 -57z m1234 -90 c66 -80 105 -217 99 -354 l-3 -72 -33 81 c-18 44 -57 121 -87 171 -30 50 -55 95 -55 100 0 19 34 111 41 111 4 0 21 -17 38 -37z m-2036 -133 c-1 -51 -40 -163 -54 -155 -5 3 -18 37 -30 76 -23 77 -21 109 13 186 l21 48 26 -55 c15 -35 24 -72 24 -100z m557 -6 c0 -53 -16 -114 -31 -114 -10 0 -29 65 -29 101 0 14 8 48 17 75 l17 49 12 -30 c7 -17 13 -53 14 -81z m472 35 c68 -34 159 -102 211 -158 l48 -51 -17 -30 -18 -29 -66 63 c-68 66 -177 142 -242 169 -43 18 -44 19 -22 52 17 26 24 25 106 -16z m983 -161 c80 -151 155 -456 142 -571 -4 -29 -11 -81 -17 -117 -21 -133 11 -257 98 -378 31 -44 81 -113 110 -153 40 -56 52 -80 52 -109 0 -54 -26 -73 -84 -65 -40 6 -52 4 -88 -20 -47 -31 -71 -26 -76 19 -4 33 -19 33 -34 1 -10 -22 -8 -30 9 -53 27 -37 63 -39 118 -7 48 29 57 23 26 -16 -28 -36 -33 -64 -21 -111 8 -28 9 -43 2 -46 -11 -3 -243 -150 -252 -159 -5 -5 54 -61 133 -128 47 -39 48 -41 36 -73 -9 -27 -9 -53 1 -123 13 -87 12 -90 -12 -136 -44 -87 -115 -109 -248 -77 -106 25 -106 24 -114 160 -13 224 -54 414 -131 603 -71 179 -95 213 -250 366 -140 138 -186 200 -219 292 l-14 40 106 99 c274 254 432 459 575 742 l72 143 22 -28 c13 -15 39 -58 58 -95z m-174 38 c-46 -101 -147 -270 -227 -376 -137 -184 -360 -411 -493 -502 -59 -41 -189 -81 -381 -118 -184 -35 -287 -47 -464 -55 -128 -6 -311 -22 -351 -31 -19 -5 -18 -4 2 14 32 28 227 109 438 182 473 163 767 312 1069 539 153 116 287 239 371 344 33 41 61 73 63 72 1 -1 -11 -32 -27 -69z m-1741 -79 c0 -81 -15 -118 -69 -171 -46 -46 -49 -47 -56 -26 -8 27 2 103 20 146 16 40 84 116 96 108 5 -3 9 -29 9 -57z m-247 33 c44 -35 77 -115 77 -187 0 -35 -4 -63 -9 -63 -10 0 -93 95 -103 119 -10 24 -9 151 1 151 4 0 20 -9 34 -20z m495 -125 c5 -65 -22 -155 -42 -135 -16 16 -14 138 3 178 19 44 33 28 39 -43z m845 23 l20 -27 -52 -47 c-53 -47 -172 -186 -312 -364 -73 -92 -78 -96 -158 -129 -45 -18 -84 -32 -86 -29 -2 2 92 107 211 234 118 126 240 266 272 311 31 45 63 81 71 80 8 -1 23 -14 34 -29z m-414 -107 c10 -6 4 -15 -24 -36 -39 -30 -118 -44 -171 -31 l-27 7 38 26 c20 14 49 29 64 33 35 11 103 12 120 1z m-683 -87 c-5 -72 -11 -93 -35 -127 -41 -60 -70 -85 -80 -68 -11 18 -2 119 14 158 12 29 91 123 103 123 3 0 2 -39 -2 -86z m-760 30 c57 -181 253 -838 251 -840 -6 -7 -589 585 -586 594 7 18 304 291 313 289 6 -2 15 -21 22 -43z m524 9 c49 -55 70 -109 70 -180 0 -35 -4 -63 -9 -63 -19 0 -90 90 -100 126 -13 47 -14 154 -2 154 5 0 23 -17 41 -37z m-222 -275 c100 -112 137 -175 162 -272 39 -154 22 -229 -66 -296 -52 -39 -84 -57 -84 -48 0 5 -86 289 -185 613 -21 66 -47 156 -60 200 l-23 80 90 -95 c49 -52 124 -134 166 -182z m921 56 c40 -8 35 -23 -15 -51 -31 -18 -55 -23 -116 -23 -43 0 -78 4 -78 9 0 12 44 40 88 56 42 15 76 18 121 9z m-1246 -422 c158 -159 287 -293 287 -298 0 -5 -18 -28 -41 -49 -67 -66 -155 -179 -215 -281 -31 -52 -60 -91 -64 -87 -3 4 -50 175 -103 378 -53 204 -112 427 -131 498 -19 70 -31 127 -27 127 3 0 136 -130 294 -288z m-295 86 c24 -90 86 -325 138 -523 l95 -360 -36 -77 c-21 -43 -41 -75 -46 -72 -28 17 -274 547 -284 612 -5 29 6 125 36 312 24 149 46 270 49 270 3 0 25 -73 48 -162z m2155 -140 c38 -89 113 -183 203 -259 90 -75 150 -149 199 -247 19 -39 35 -73 35 -77 0 -4 -30 21 -67 55 -38 34 -140 116 -228 182 -266 197 -324 249 -337 295 -3 12 135 110 157 112 6 1 23 -27 38 -61z m-268 -24 c-24 -18 -203 -120 -415 -236 -199 -109 -868 -443 -875 -437 -14 15 -24 155 -15 222 22 157 74 241 180 294 90 45 190 62 450 78 263 16 436 37 575 69 122 29 125 29 100 10z m-205 -201 c0 -10 11 -36 25 -58 32 -52 32 -75 1 -75 -14 0 -27 4 -30 9 -3 5 -18 12 -33 16 -32 7 -73 42 -73 61 0 13 75 61 98 63 6 1 12 -7 12 -16z m-1138 -190 c-13 -62 -12 -139 1 -293 2 -22 -14 -32 -161 -108 -90 -46 -165 -82 -168 -79 -8 8 130 271 188 358 47 70 143 189 152 189 1 0 -4 -30 -12 -67z m548 -368 c89 -99 172 -190 184 -203 l21 -24 -31 -26 c-207 -177 -269 -222 -306 -222 -20 0 -343 499 -331 511 17 17 278 149 289 146 7 -1 85 -83 174 -182z m2180 56 c0 -11 -10 -32 -23 -47 -18 -21 -35 -28 -75 -32 -30 -2 -52 0 -52 5 0 18 111 90 143 92 4 1 7 -8 7 -18z m-1545 -21 c0 -7 -6 -15 -12 -17 -8 -3 -13 4 -13 17 0 13 5 20 13 18 6 -3 12 -11 12 -18z m-1107 -92 c21 -35 88 -136 147 -226 59 -90 105 -165 103 -168 -3 -2 -126 47 -274 109 -148 62 -295 124 -328 137 -56 23 -58 24 -35 36 184 99 326 173 336 173 6 1 29 -27 51 -61z m1151 21 c74 -16 171 -108 171 -163 0 -8 -13 -17 -30 -21 -39 -8 -39 -25 -1 -25 17 0 33 -4 36 -10 4 -7 -77 -10 -234 -10 l-241 0 0 23 c0 34 44 119 78 151 29 27 117 65 154 66 9 0 39 -5 67 -11z m1451 -49 c25 -25 25 -52 0 -75 -19 -18 -21 -17 -77 27 -77 61 -78 68 -4 68 48 0 65 -4 81 -20z m-1222 -232 c-4 -10 -67 -14 -264 -16 -260 -3 -310 0 -299 18 4 6 116 10 286 10 220 0 280 -3 277 -12z" fill="#f0e5dd"/>
<path d="M3987 5593 c-13 -23 -57 -185 -52 -193 3 -6 12 -10 20 -10 15 0 69 159 63 187 -3 18 -24 28 -31 16z" fill="#f0e5dd"/>
<path d="M4077 5441 c-46 -78 -55 -105 -38 -115 11 -7 31 16 80 97 45 74 50 97 23 97 -11 0 -34 -28 -65 -79z" fill="#f0e5dd"/>
<path d="M4183 5354 c-59 -52 -81 -94 -50 -94 22 0 151 125 143 138 -13 21 -29 13 -93 -44z" fill="#f0e5dd"/>
<path d="M4650 4593 c-57 -19 -218 -89 -232 -101 -17 -15 -25 -42 -12 -42 4 0 55 18 115 40 141 52 177 52 308 1 102 -40 109 -40 124 0 9 27 -7 39 -107 74 -89 32 -156 42 -196 28z" fill="#f0e5dd"/>
<path d="M4598 4345 c-80 -41 -150 -79 -153 -86 -4 -6 -1 -15 6 -20 21 -13 281 -117 310 -124 25 -6 26 -5 31 53 7 72 22 97 70 116 34 14 58 49 44 64 -4 3 -23 0 -42 -7 -37 -13 -53 -6 -54 25 0 15 -39 54 -53 53 -7 0 -78 -33 -159 -74z m172 -1 c6 -14 10 -27 10 -28 0 -3 -86 -21 -152 -31 -21 -3 -38 -4 -38 -1 0 6 150 85 163 86 4 0 12 -12 17 -26z m-70 -129 c0 -14 -3 -25 -7 -25 -18 0 -93 34 -93 41 0 5 23 9 50 9 47 0 50 -2 50 -25z" fill="#f0e5dd"/>
<path d="M3490 3304 c-69 -30 -147 -132 -120 -158 8 -7 14 -7 16 -1 21 52 56 94 101 120 29 17 52 36 53 43 0 15 -7 15 -50 -4z" fill="#f0e5dd"/>
<path d="M3425 5746 c-132 -61 -254 -119 -271 -128 -72 -39 -130 -130 -122 -194 4 -36 32 -39 36 -4 13 106 39 127 346 269 142 67 260 122 261 123 2 2 6 13 9 26 5 15 3 22 -6 21 -7 0 -121 -51 -253 -113z" fill="#f0e5dd"/>
<path d="M3891 3747 c-18 -22 -41 -85 -41 -113 0 -14 14 -60 31 -102 38 -95 36 -144 -10 -208 -37 -53 -25 -57 28 -9 69 62 77 153 25 258 -21 41 -25 60 -21 101 2 28 8 59 12 69 8 20 -8 23 -24 4z" fill="#f0e5dd"/>
<path d="M3773 3678 c-28 -33 -26 -73 7 -148 26 -59 31 -82 27 -119 l-5 -46 19 23 c33 41 34 84 3 149 -15 32 -30 80 -33 107 -5 41 -8 47 -18 34z" fill="#f0e5dd"/>
<path d="M3687 3597 c-11 -29 -8 -61 8 -100 8 -20 15 -49 15 -64 1 -27 1 -27 15 -9 20 26 19 76 -2 105 -9 13 -19 38 -22 55 -6 25 -8 28 -14 13z" fill="#f0e5dd"/>
<path d="M3535 2934 c-17 -24 -33 -44 -36 -44 -3 0 -11 12 -18 26 -6 14 -17 24 -24 22 -22 -7 -58 -91 -52 -120 6 -24 3 -27 -27 -30 -22 -2 -34 -9 -36 -20 -3 -17 13 -18 233 -18 220 0 236 1 233 18 -2 11 -14 18 -38 20 -35 3 -35 4 -32 41 3 28 -3 48 -20 75 -12 19 -26 36 -30 36 -4 0 -15 -13 -24 -30 l-18 -30 -24 23 c-14 12 -32 34 -41 49 l-17 27 -29 -45z m-59 -119 c7 -27 6 -29 -9 -16 -10 7 -17 25 -17 39 0 33 16 18 26 -23z m118 23 c26 -37 20 -48 -24 -48 -43 0 -50 13 -30 51 14 25 35 24 54 -3z m106 -3 c0 -14 -30 -49 -36 -42 -2 2 2 17 8 35 12 30 28 34 28 7z" fill="#f0e5dd"/>
<path d="M4221 2753 c-14 -17 -19 -34 -15 -47 14 -48 72 -62 98 -24 21 30 20 54 -4 78 -27 27 -55 25 -79 -7z" fill="#f0e5dd"/>
<path d="M1639 2607 c-63 -18 -108 -53 -130 -101 -23 -52 -23 -80 0 -133 23 -50 73 -88 170 -128 93 -39 130 -70 137 -116 12 -74 -71 -125 -164 -100 -41 12 -99 67 -137 132 l-20 34 -3 -73 c-2 -45 2 -79 8 -88 24 -27 123 -57 195 -57 107 0 168 32 222 116 46 73 155 177 185 177 6 0 8 -47 6 -114 -2 -91 -6 -118 -20 -133 -10 -11 -18 -23 -18 -26 0 -4 47 -7 105 -7 l106 0 -22 29 c-19 26 -22 46 -26 165 -4 162 -9 156 129 156 149 0 138 11 138 -150 0 -122 -2 -140 -20 -163 -11 -14 -20 -28 -20 -31 0 -3 47 -6 105 -6 l106 0 -23 30 c-19 26 -22 46 -26 150 -3 77 -1 120 6 120 13 0 245 -81 255 -90 11 -10 -40 -130 -74 -172 l-30 -38 80 0 80 0 -21 35 c-20 36 -20 36 -1 93 l19 57 115 3 116 3 28 -71 c26 -65 27 -71 12 -88 -10 -10 -17 -22 -17 -25 0 -4 53 -7 117 -7 l117 0 -37 38 c-30 30 -58 89 -145 302 l-109 265 -76 3 -77 3 21 -36 21 -36 -52 -132 c-29 -73 -56 -136 -60 -141 -9 -9 -270 81 -283 98 -14 18 0 185 17 211 9 14 16 27 16 30 0 3 -45 5 -100 5 -55 0 -100 -3 -100 -7 0 -3 8 -15 18 -26 12 -14 18 -41 20 -101 l4 -81 -131 0 -131 0 -6 33 c-9 44 2 120 21 148 8 13 15 26 15 29 0 3 -45 5 -100 5 l-100 0 20 -37 c16 -30 20 -57 20 -129 l0 -91 -47 -34 c-27 -18 -67 -51 -89 -71 l-41 -38 -13 30 c-19 46 -79 91 -179 134 -111 47 -141 73 -141 120 0 26 7 40 32 61 28 24 39 27 85 23 66 -6 100 -29 131 -92 30 -61 44 -49 40 35 l-3 63 -45 17 c-65 24 -147 31 -201 16z m540 -309 c-2 -174 -2 -178 -11 -93 -8 80 -3 275 8 275 2 0 3 -82 3 -182z m1009 12 c60 -144 83 -211 63 -180 -13 21 -127 299 -135 330 -13 47 11 -2 72 -150z m-618 -10 c0 -93 -4 -150 -10 -150 -6 0 -10 51 -10 134 0 121 4 166 16 166 2 0 4 -67 4 -150z m528 43 c46 -119 45 -123 -24 -123 -61 0 -104 11 -104 26 0 21 72 204 80 204 4 0 26 -48 48 -107z m-1406 -23 c112 -56 158 -86 158 -102 0 -7 -10 -2 -22 9 -13 12 -70 44 -128 73 -97 48 -134 70 -117 70 4 0 53 -23 109 -50z" fill="#f0e5dd"/>
<path d="M3547 2593 c-4 -3 -7 -38 -6 -77 0 -60 2 -68 12 -51 7 11 26 34 42 51 26 27 41 33 95 39 36 3 87 5 113 3 l48 -3 -107 -170 c-152 -241 -234 -377 -234 -387 0 -10 487 -11 494 0 2 4 8 40 11 80 9 84 -2 93 -36 32 -34 -61 -83 -80 -202 -80 -59 0 -97 4 -97 10 0 6 73 128 163 273 90 144 167 268 171 275 6 9 -42 12 -227 12 -128 0 -237 -3 -240 -7z m287 -190 c-44 -77 -166 -263 -171 -263 -2 0 5 17 18 38 12 20 31 53 42 72 34 58 129 200 134 200 3 0 -8 -21 -23 -47z" fill="#f0e5dd"/>
<path d="M4160 2593 c0 -3 8 -15 18 -26 15 -17 17 -45 17 -272 0 -227 -2 -255 -17 -272 -10 -11 -18 -23 -18 -26 0 -4 48 -7 107 -7 l106 0 -24 26 -24 26 0 253 c0 227 2 255 18 272 9 11 17 23 17 26 0 4 -45 7 -100 7 -55 0 -100 -3 -100 -7z m109 -288 c-1 -71 -5 -141 -9 -155 -5 -15 -8 44 -9 145 0 113 3 165 9 155 5 -8 9 -73 9 -145z" fill="#f0e5dd"/>
<path d="M4509 2550 c22 -28 72 -105 113 -173 l73 -122 3 -99 c4 -88 2 -102 -17 -127 -12 -15 -21 -31 -21 -34 0 -10 207 -5 241 6 51 18 117 65 205 148 88 82 167 125 248 135 65 9 132 -7 149 -34 21 -34 27 -22 27 55 0 41 -2 75 -5 75 -2 0 -15 -11 -29 -25 -22 -22 -33 -25 -101 -25 l-75 0 0 93 c0 141 -2 137 89 137 89 0 136 -19 166 -67 11 -18 23 -32 28 -33 8 0 9 85 1 118 -6 22 -7 22 -224 22 l-218 0 19 -37 c16 -31 19 -59 19 -158 l0 -120 -38 -27 c-20 -15 -73 -59 -117 -98 -79 -69 -162 -120 -197 -120 -16 0 -18 10 -20 83 -1 45 -1 97 0 116 2 44 121 249 180 314 l45 47 -77 0 c-42 0 -76 -2 -76 -5 0 -2 5 -16 12 -30 10 -22 6 -35 -33 -110 -24 -47 -53 -97 -64 -111 l-20 -26 -58 102 c-62 111 -75 144 -58 154 30 19 2 26 -99 26 l-110 0 39 -50z m205 -196 c48 -83 50 -90 52 -173 l3 -86 -10 85 c-8 75 -15 95 -66 185 -66 119 -70 127 -46 97 10 -12 40 -61 67 -108z m553 -6 c-2 -24 -4 -7 -4 37 0 44 2 63 4 43 2 -21 2 -57 0 -80z" fill="#f0e5dd"/>
<path d="M5275 2228 c-2 -7 -6 -38 -8 -68 l-3 -55 -2 58 c-2 61 -6 65 -39 42 -17 -12 -21 -27 -25 -89 -2 -52 -8 -80 -21 -93 -9 -11 -17 -23 -17 -26 0 -4 103 -7 229 -7 l230 0 6 53 c4 29 5 66 3 82 l-3 30 -27 -47 c-37 -61 -87 -82 -188 -76 -48 2 -74 8 -80 18 -6 8 -10 54 -10 103 0 81 -1 87 -20 87 -11 0 -23 -6 -25 -12z" fill="#f0e5dd"/>
<path d="M2212 1923 c-7 -3 -21 -21 -31 -41 -11 -21 -38 -58 -61 -84 l-42 -48 -110 0 -111 0 6 -45 c8 -56 30 -100 70 -142 29 -31 29 -33 13 -57 -9 -14 -16 -30 -16 -36 0 -6 52 -10 145 -10 80 0 145 2 145 5 0 4 -7 20 -16 37 -15 29 -15 31 14 62 41 43 61 86 64 137 3 43 2 44 -29 47 -42 4 -41 17 2 56 35 32 41 49 29 81 -8 19 -54 44 -72 38z m38 -48 c10 -12 3 -24 -36 -70 -26 -30 -56 -55 -66 -55 -22 0 -19 6 27 65 18 22 35 48 38 58 8 21 21 22 37 2z m-2 -167 c-3 -7 -25 -14 -51 -16 -69 -5 -57 -32 14 -32 34 0 34 -1 14 -40 -28 -54 -60 -70 -142 -70 -86 0 -122 15 -152 63 -12 19 -21 37 -21 41 0 3 40 6 89 6 53 0 93 4 96 11 11 17 4 18 -95 21 -64 2 -95 7 -98 16 -3 9 36 12 173 12 137 0 176 -3 173 -12z m-80 -205 c3 -10 -20 -13 -92 -13 -88 0 -108 5 -89 24 13 12 176 2 181 -11z" fill="#f0e5dd"/>
<path d="M2567 1816 c-57 -16 -84 -38 -108 -91 -42 -91 -11 -187 75 -232 34 -18 137 -20 178 -5 22 9 28 19 33 59 3 26 9 60 14 76 l9 27 -59 0 c-60 0 -71 -8 -44 -30 11 -9 15 -27 13 -59 l-3 -46 -43 -3 c-37 -3 -47 1 -77 31 -95 95 -19 286 100 247 20 -7 42 -24 52 -41 23 -39 33 -37 33 9 0 32 -5 41 -25 50 -42 19 -97 22 -148 8z" fill="#f0e5dd"/>
<path d="M3323 1820 c-43 -10 -60 -25 -73 -66 -18 -53 2 -82 90 -129 79 -42 93 -63 67 -99 -30 -41 -124 -11 -143 46 -10 32 -24 20 -24 -21 0 -46 11 -57 70 -70 55 -12 120 2 147 31 22 25 24 98 3 123 -8 10 -42 30 -75 45 -33 15 -66 34 -73 43 -19 23 -11 50 20 65 35 16 72 2 96 -38 22 -35 32 -30 32 17 0 26 -5 35 -22 42 -40 14 -82 18 -115 11z" fill="#f0e5dd"/>
<path d="M4397 1816 c-50 -18 -76 -42 -98 -91 -48 -104 8 -221 117 -245 72 -16 148 14 184 72 61 100 12 237 -95 267 -50 14 -61 13 -108 -3z m92 -31 c38 -19 62 -74 62 -138 0 -60 -11 -95 -37 -118 -31 -27 -60 -31 -93 -14 -44 22 -65 69 -66 142 0 67 20 107 66 130 31 16 34 16 68 -2z" fill="#f0e5dd"/>
<path d="M2948 1791 c4 -30 -49 -178 -94 -260 -13 -24 -24 -45 -24 -47 0 -2 18 -4 41 -4 39 0 40 1 34 28 -3 16 -1 41 4 55 10 25 15 27 70 27 56 0 59 -1 71 -30 7 -16 9 -41 6 -55 -6 -24 -5 -25 49 -25 30 0 55 4 55 9 0 5 -11 28 -24 52 -14 24 -46 97 -71 162 l-47 117 -37 0 c-36 0 -37 -1 -33 -29z m56 -111 c10 -28 16 -53 13 -56 -3 -3 -23 -4 -45 -2 l-39 3 20 53 c11 28 23 52 26 52 4 0 15 -23 25 -50z" fill="#f0e5dd"/>
<path d="M3557 1814 c-4 -4 -7 -23 -7 -42 l0 -34 31 26 c17 14 41 26 55 26 l24 0 0 -139 c0 -83 -4 -142 -10 -146 -24 -15 -6 -25 46 -25 50 0 55 2 48 18 -5 9 -10 79 -12 155 l-3 137 26 0 c14 0 37 -11 51 -25 14 -14 27 -25 30 -25 3 0 4 17 2 38 l-3 37 -136 3 c-74 1 -138 -1 -142 -4z" fill="#f0e5dd"/>
<path d="M3926 1803 c13 -28 17 -284 5 -296 -21 -21 -11 -27 44 -27 51 0 69 10 45 25 -5 3 -10 31 -10 61 0 47 3 54 19 54 13 0 30 -18 51 -55 37 -65 63 -85 107 -85 40 0 41 9 7 41 -14 13 -37 43 -51 67 l-25 42 31 29 c22 21 31 38 31 61 0 75 -42 100 -171 100 -83 0 -90 -1 -83 -17z m166 -30 c24 -22 24 -77 -2 -103 -11 -11 -33 -20 -50 -20 l-30 0 0 70 0 70 32 0 c17 0 40 -7 50 -17z" fill="#f0e5dd"/>
<path d="M5345 1756 c-16 -7 -41 -25 -54 -40 -22 -24 -31 -26 -100 -26 -42 0 -123 7 -181 15 -144 20 -189 19 -227 -5 -43 -26 -44 -61 -4 -89 33 -24 108 -28 206 -10 33 6 111 10 173 10 112 -1 113 -1 154 -33 36 -30 46 -33 102 -31 83 2 181 26 181 43 0 15 -31 23 -127 35 -56 6 -74 20 -58 44 4 7 45 18 90 24 51 7 84 16 87 24 8 21 2 23 -98 38 -113 17 -107 17 -144 1z m95 -40 c-91 -24 -90 -105 2 -122 l43 -7 -40 -9 c-47 -11 -110 4 -119 28 -9 24 -70 44 -134 44 -32 0 -112 -7 -177 -15 -155 -19 -194 -19 -217 2 -17 15 -17 17 -2 35 21 22 73 23 204 3 52 -8 137 -15 188 -15 92 0 93 0 130 35 35 32 41 34 102 34 l65 -1 -45 -12z" fill="#f0e5dd"/>
<path d="M4834 1666 c-4 -10 -2 -22 4 -28 8 -8 13 -7 18 6 4 10 2 22 -4 28 -8 8 -13 7 -18 -6z" fill="#f0e5dd"/>
<path d="M3032 1369 c-46 -9 -72 -36 -72 -74 0 -39 18 -56 93 -89 46 -21 57 -30 57 -49 0 -58 -66 -65 -116 -11 l-34 35 0 -35 c0 -40 15 -52 77 -62 55 -8 106 15 123 56 20 49 0 78 -82 118 -47 22 -68 38 -68 50 0 51 63 57 109 10 l31 -32 0 37 c0 20 -3 37 -7 37 -5 0 -24 4 -43 8 -19 5 -50 5 -68 1z" fill="#f0e5dd"/>
<path d="M3613 1369 c-80 -16 -118 -71 -111 -157 4 -48 10 -60 41 -88 85 -78 218 -42 247 67 29 108 -65 202 -177 178z m68 -29 c68 -37 64 -208 -6 -226 -64 -16 -115 35 -115 114 0 90 59 145 121 112z" fill="#f0e5dd"/>
<path d="M2360 1350 c8 -14 11 -62 8 -141 l-3 -119 43 0 c42 0 51 7 31 27 -6 6 -9 28 -7 49 5 60 30 56 67 -9 33 -58 45 -67 92 -67 l29 0 -35 46 c-56 73 -58 78 -30 104 31 30 33 79 4 106 -16 14 -41 19 -116 22 l-95 4 12 -22z m148 -22 c7 -7 12 -24 12 -38 0 -35 -17 -50 -57 -50 -33 0 -33 0 -33 50 0 50 0 50 33 50 18 0 38 -5 45 -12z" fill="#f0e5dd"/>
<path d="M2676 1353 c13 -28 17 -224 5 -236 -23 -23 -7 -28 96 -25 l107 3 7 29 c11 40 4 44 -26 16 -17 -16 -37 -24 -67 -24 l-43 -1 -3 53 c-3 50 -2 52 23 52 15 0 35 -5 46 -10 17 -10 19 -7 19 27 0 29 -3 34 -12 25 -7 -7 -27 -12 -45 -12 -32 0 -33 1 -33 45 l0 45 42 0 c29 0 49 -7 66 -22 l24 -23 -4 35 -3 35 -104 3 c-96 3 -103 1 -95 -15z" fill="#f0e5dd"/>
<path d="M3210 1334 l0 -37 23 21 c13 12 33 22 46 22 22 0 23 -1 19 -125 l-3 -125 43 0 c41 0 43 1 35 23 -4 12 -8 67 -8 122 0 89 2 100 19 103 10 2 32 -6 48 -18 l29 -22 -3 34 -3 33 -122 3 -123 3 0 -37z" fill="#f0e5dd"/>
<path d="M3855 1361 c-3 -5 -1 -12 5 -16 15 -9 13 -228 -2 -243 -9 -9 0 -12 40 -12 49 0 52 1 42 19 -5 11 -10 38 -10 61 0 34 3 41 17 38 10 -2 27 -19 40 -38 49 -77 53 -80 89 -80 l35 0 -41 59 c-22 33 -40 62 -40 65 0 3 11 16 25 30 39 39 32 87 -16 111 -31 17 -174 21 -184 6z m155 -42 c24 -44 -14 -94 -62 -81 -14 3 -18 15 -18 53 l0 49 35 0 c25 0 37 -6 45 -21z" fill="#f0e5dd"/>
<path d="M4253 1356 c7 -17 -53 -170 -90 -228 l-23 -38 39 0 c34 0 38 3 34 20 -3 11 -2 31 1 45 6 23 11 25 60 25 47 0 54 -3 65 -26 6 -15 9 -35 6 -45 -6 -17 -1 -19 45 -19 l52 0 -18 28 c-10 15 -39 77 -64 137 -44 107 -47 110 -79 113 -27 3 -33 0 -28 -12z m47 -104 c15 -39 5 -52 -36 -44 -18 3 -23 9 -19 21 4 9 12 29 17 44 12 32 19 28 38 -21z" fill="#f0e5dd"/>
<path d="M4490 1351 c14 -28 13 -234 -2 -249 -9 -9 -2 -12 31 -12 36 0 42 2 32 14 -15 18 -28 186 -14 186 5 0 45 -45 89 -99 43 -55 87 -100 96 -100 15 -1 17 14 20 122 2 67 7 130 12 140 7 14 3 17 -28 17 -37 0 -44 -8 -26 -26 6 -6 10 -42 8 -84 l-3 -74 -58 72 c-80 99 -95 112 -134 112 -30 0 -33 -2 -23 -19z" fill="#f0e5dd"/>
<path d="M3090 795 c0 -80 17 -104 22 -32 3 37 6 42 28 42 22 0 25 -5 28 -43 3 -46 22 -49 22 -4 0 42 -27 75 -56 68 -21 -6 -24 -3 -24 19 0 14 -4 25 -10 25 -6 0 -10 -32 -10 -75z" fill="#f0e5dd"/>
<path d="M3440 860 c0 -5 5 -10 10 -10 6 0 10 5 10 10 0 6 -4 10 -10 10 -5 0 -10 -4 -10 -10z" fill="#f0e5dd"/>
<path d="M2809 831 c-20 -20 -29 -39 -29 -61 0 -42 47 -90 89 -90 16 0 33 5 36 10 4 6 -9 10 -33 10 -55 0 -77 29 -73 93 0 9 10 26 21 37 44 44 134 7 128 -53 -5 -47 -28 -47 -28 0 l0 39 -42 -1 c-37 0 -44 -4 -52 -27 -8 -22 -6 -32 9 -48 20 -22 50 -26 61 -9 4 8 9 7 15 -2 16 -25 44 4 47 48 3 34 -1 44 -24 62 -39 31 -89 28 -125 -8z m81 -36 c19 -23 8 -50 -20 -50 -16 0 -26 6 -28 18 -4 18 14 47 28 47 4 0 13 -7 20 -15z" fill="#f0e5dd"/>
<path d="M4061 833 c-9 -10 -10 -17 -3 -22 6 -3 12 -24 14 -46 2 -33 7 -41 26 -43 l24 -4 -21 21 c-24 24 -27 59 -6 67 19 8 20 24 1 24 -8 0 -16 4 -18 9 -1 5 -9 2 -17 -6z" fill="#f0e5dd"/>
<path d="M2995 816 c-25 -18 -13 -43 24 -51 17 -4 31 -11 31 -16 0 -10 -12 -12 -50 -9 -19 1 -22 -1 -14 -10 6 -6 24 -10 40 -8 23 2 29 8 29 28 0 17 -7 26 -23 30 -34 7 -32 24 3 30 25 5 27 7 12 13 -25 10 -30 9 -52 -7z" fill="#f0e5dd"/>
<path d="M3233 823 c-22 -8 -14 -19 14 -18 14 0 28 -6 30 -12 3 -8 -5 -13 -20 -13 -13 0 -30 -7 -37 -15 -19 -23 5 -45 46 -43 33 1 34 2 34 44 0 52 -26 74 -67 57z m47 -68 c0 -9 -7 -18 -16 -22 -18 -7 -39 11 -30 26 11 17 46 13 46 -4z" fill="#f0e5dd"/>
<path d="M3330 820 c0 -5 11 -10 25 -10 14 0 25 -3 25 -6 0 -3 -11 -20 -25 -38 -14 -18 -25 -36 -25 -39 0 -4 18 -7 40 -7 45 0 55 17 13 22 l-26 3 26 31 c37 43 34 54 -13 54 -22 0 -40 -4 -40 -10z" fill="#f0e5dd"/>
<path d="M3440 776 c0 -31 5 -56 10 -56 6 0 10 22 10 49 0 28 -4 53 -10 56 -6 4 -10 -15 -10 -49z" fill="#f0e5dd"/>
<path d="M3480 824 c0 -6 9 -32 21 -58 21 -47 19 -66 -7 -66 -8 0 -14 -4 -14 -10 0 -12 20 -13 36 -2 16 10 68 131 60 139 -3 3 -14 -12 -24 -35 -19 -47 -27 -52 -35 -19 -7 26 -36 67 -37 51z" fill="#f0e5dd"/>
<path d="M3612 814 c-27 -18 -29 -55 -4 -77 21 -20 58 -22 68 -5 5 7 1 9 -13 6 -22 -6 -53 7 -53 22 0 6 18 10 40 10 28 0 40 4 40 14 0 13 -36 46 -50 46 -3 0 -16 -7 -28 -16z m56 -21 c2 -9 -7 -13 -27 -13 -30 0 -39 9 -24 24 11 10 46 3 51 -11z" fill="#f0e5dd"/>
<path d="M3727 812 c-24 -26 -21 -59 7 -77 19 -13 29 -14 45 -5 22 11 27 4 12 -19 -6 -9 -19 -12 -40 -8 -32 7 -43 -6 -15 -17 52 -20 74 3 77 80 l2 57 -36 4 c-25 2 -40 -2 -52 -15z m67 -24 c15 -24 -13 -53 -43 -43 -21 6 -29 43 -14 59 12 12 45 2 57 -16z" fill="#f0e5dd"/>
<path d="M3863 823 c-24 -9 -13 -20 17 -15 23 3 30 0 30 -12 0 -10 -9 -16 -24 -16 -13 0 -29 -7 -36 -15 -19 -23 5 -45 46 -43 33 1 34 2 34 44 0 52 -26 74 -67 57z m45 -70 c-4 -20 -18 -26 -37 -14 -18 12 -5 31 20 31 14 0 19 -6 17 -17z" fill="#f0e5dd"/>
<path d="M3978 819 c-27 -15 -21 -39 12 -51 38 -13 34 -34 -4 -30 -19 3 -26 0 -22 -7 4 -6 16 -11 26 -11 56 0 71 44 20 57 -39 10 -43 27 -7 31 15 2 25 8 22 13 -8 12 -25 11 -47 -2z" fill="#f0e5dd"/>
<path d="M4144 821 c-9 -9 -3 -101 6 -101 6 0 10 16 10 35 0 24 6 39 20 47 11 7 20 16 20 19 0 7 -49 7 -56 0z" fill="#f0e5dd"/>
<path d="M4230 810 c-24 -24 -25 -38 -4 -68 18 -27 55 -29 77 -4 23 26 21 58 -5 76 -30 21 -44 20 -68 -4z m58 -9 c8 -4 12 -19 10 -32 -4 -33 -53 -40 -63 -9 -11 36 22 61 53 41z" fill="#f0e5dd"/>
</g>
</svg>